<?xml version="1.0" encoding="iso-8859-1"?>
<!-- Generator: Adobe Illustrator 15.0.0, SVG Export Plug-In . SVG Version: 6.00 Build 0)  -->
<!DOCTYPE svg PUBLIC "-//W3C//DTD SVG 1.1//EN" "http://www.w3.org/Graphics/SVG/1.1/DTD/svg11.dtd">
<svg version="1.1" id="&#x56FE;&#x5C42;_1" xmlns="http://www.w3.org/2000/svg" xmlns:xlink="http://www.w3.org/1999/xlink" x="0px"
	 y="0px" width="1920px" height="1080px" viewBox="0 0 1920 1080" style="enable-background:new 0 0 1920 1080;"
	 xml:space="preserve">
<path style="fill-rule:evenodd;clip-rule:evenodd;fill:none;stroke:#000000;stroke-width:0.75;stroke-miterlimit:10;" d="M700,635
	L426,434L299,574l274,226L700,635z"/>
<path style="fill-rule:evenodd;clip-rule:evenodd;fill:none;stroke:#000000;stroke-width:0.75;stroke-miterlimit:10;" d="M144,172
	l241,182l33-34h136l2-279l-325-1L144,172z"/>
<path style="fill-rule:evenodd;clip-rule:evenodd;fill:none;stroke:#000000;stroke-width:0.75;stroke-miterlimit:10;" d="M422,430
	l-36-71L143,177L26,345l270,228L422,430z"/>
<path style="fill-rule:evenodd;clip-rule:evenodd;fill:none;stroke:#000000;stroke-width:0.75;stroke-miterlimit:10;" d="M728,604
	L575,803l181,153h22l152-197L728,604z"/>
<path style="fill-rule:evenodd;clip-rule:evenodd;fill:none;stroke:#000000;stroke-width:0.75;stroke-miterlimit:10;" d="M1177,757
	l4,194h-171l1-193L1177,757z"/>
<path style="fill-rule:evenodd;clip-rule:evenodd;fill:none;stroke:#000000;stroke-width:0.75;stroke-miterlimit:10;" d="M1548,477
	l-190,167l137,155l190-168L1548,477z"/>
<path style="fill-rule:evenodd;clip-rule:evenodd;fill:none;stroke:#000000;stroke-width:0.75;stroke-miterlimit:10;" d="M1456,459
	l220-213l212,210l-198,174l-140-155l-48,39L1456,459z"/>
<path style="fill-rule:evenodd;clip-rule:evenodd;fill:none;stroke:#000000;stroke-width:0.75;stroke-miterlimit:10;" d="M1239,749
	l115-104l139,156l-119,99L1239,749z"/>
<path style="fill-rule:evenodd;clip-rule:evenodd;fill:none;stroke:#000000;stroke-width:0.75;stroke-miterlimit:10;" d="M1072,41
	l245-3l-1,271l-240,3L1072,41z"/>
<path style="fill-rule:evenodd;clip-rule:evenodd;fill:none;stroke:#000000;stroke-width:0.75;stroke-miterlimit:10;" d="M560,43
	l509-1l1,270l245,2l178,200l-258,234l137,156l48-36l62,76l-98,86l-73-87l-126-4l2-188l-255,3L729,596l-32,32L428,429l-39-73l30-28
	l139-4L560,43z"/>
<path style="fill-rule:evenodd;clip-rule:evenodd;fill:none;stroke:#000000;stroke-width:0.75;stroke-miterlimit:10;" d="M1320,310
	l132,146l220-211L1461,41l-142-3L1320,310z"/>
<path style="fill-rule:evenodd;clip-rule:evenodd;fill:none;stroke:#000000;stroke-width:0.75;stroke-miterlimit:10;" d="M1008,756
	v196l-223,4l147-196L1008,756z"/>
</svg>
